<?xml version="1.0" standalone="no"?>
<!DOCTYPE svg PUBLIC "-//W3C//DTD SVG 20010904//EN"
 "http://www.w3.org/TR/2001/REC-SVG-20010904/DTD/svg10.dtd">
<svg version="1.0" xmlns="http://www.w3.org/2000/svg"
 width="256.000000pt" height="256.000000pt" viewBox="0 0 256.000000 256.000000"
 preserveAspectRatio="xMidYMid meet">
<metadata>
Created by potrace 1.11, written by Peter Selinger 2001-2013
</metadata>
<g transform="translate(0.000000,256.000000) scale(0.100000,-0.100000)"
fill="#000000" stroke="none">
<path d="M198 1568 c-109 -121 -198 -229 -198 -239 0 -14 255 -311 381 -444
19 -19 19 -19 50 12 l32 31 -177 196 c-97 107 -176 200 -176 205 0 5 24 36 53
68 29 32 108 120 176 196 l124 138 -28 29 c-16 17 -31 30 -34 30 -3 0 -95
-100 -203 -222z"/>
<path d="M2131 1766 l-23 -24 -41 18 c-31 14 -43 16 -48 7 -13 -23 -321 -832
-323 -846 0 -7 16 -19 36 -27 34 -11 39 -11 46 4 5 9 78 198 162 420 85 221
157 402 161 402 9 0 349 -380 349 -391 0 -5 -79 -97 -176 -205 l-177 -196 32
-31 c31 -31 31 -31 50 -12 122 129 381 430 381 444 0 16 -379 451 -399 459 -4
1 -17 -9 -30 -22z"/>
<path d="M490 1335 l0 -445 85 0 86 0 -3 305 c-2 168 -3 305 -2 305 1 0 18
-26 39 -57 21 -32 117 -169 213 -305 l174 -248 84 0 84 0 0 445 0 445 -85 0
-85 0 0 -297 0 -296 -57 85 c-32 47 -125 180 -208 296 l-150 211 -87 1 -88 0
0 -445z m260 223 c184 -258 259 -368 307 -450 24 -43 50 -78 56 -78 34 1 36
14 27 170 -5 85 -9 237 -10 338 l0 182 30 0 30 0 0 -385 0 -385 -39 0 -39 0
-177 250 c-97 137 -203 293 -235 346 -69 114 -64 107 -87 100 -17 -5 -18 -24
-14 -351 l3 -345 -31 0 -31 0 0 385 0 385 48 0 47 0 115 -162z"/>
<path d="M1550 1460 c0 -268 -3 -326 -16 -359 -27 -67 -97 -85 -225 -55 -26 6
-27 4 -39 -61 -8 -41 -9 -70 -3 -76 16 -16 126 -31 188 -26 96 10 149 33 198
87 69 77 70 83 74 468 l4 342 -90 0 -91 0 0 -320z m118 -52 c-3 -302 -4 -314
-25 -355 -41 -76 -114 -113 -223 -113 -68 0 -100 8 -94 24 3 7 32 11 82 11 93
0 140 24 175 89 21 39 22 53 25 349 l3 307 30 0 30 0 -3 -312z"/>
</g>
</svg>
